PathFileType  4	(X/Y/Z) C:\Users\antoi\Documents\MyRepositories\mobilecap\ResultsAnalysis
DataRate	CameraRate	NumFrames	NumMarkers	Units	OrigDataRate	OrigDataStartFrame	OrigNumFrames
100.0	100.0	4	51	mm	100.0	76	150
Frame#	Time	r_knee			r_shank_antsup			r_ankle			r_calc			r_5meta			r_toe			L_knee			L_shank_antsup			L_ankle			L_calc			L_5meta			L_toe			r_sh2			r_sh3			r_sh4			L_sh2			L_sh3			r_thigh1			r_thigh2			r_thigh3			r_thigh4			r_thigh5			L_thigh1			L_thigh2			L_thigh3			L_thigh4			r.ASIS			r.PSIS			L.ASIS			L.PSIS			C7			R_Shoulder			L_Shoulder			R_Sternum			L_Sternum			R_humerus			R_elbow_med			R_elbow_lat			R_forearm			R_wrist_radius			R_wrist_ulna			L_humerus			L_elbow_med			L_elbow_lat			L_forearm			L_wrist_radius			L_wrist_ulna			R_HJC			L_HJC			R_HJC_reg			L_HJC_reg			
		X1	Y1	Z1	X2	Y2	Z2	X3	Y3	Z3	X4	Y4	Z4	X5	Y5	Z5	X6	Y6	Z6	X7	Y7	Z7	X8	Y8	Z8	X9	Y9	Z9	X10	Y10	Z10	X11	Y11	Z11	X12	Y12	Z12	X13	Y13	Z13	X14	Y14	Z14	X15	Y15	Z15	X16	Y16	Z16	X17	Y17	Z17	X18	Y18	Z18	X19	Y19	Z19	X20	Y20	Z20	X21	Y21	Z21	X22	Y22	Z22	X23	Y23	Z23	X24	Y24	Z24	X25	Y25	Z25	X26	Y26	Z26	X27	Y27	Z27	X28	Y28	Z28	X29	Y29	Z29	X30	Y30	Z30	X31	Y31	Z31	X32	Y32	Z32	X33	Y33	Z33	X34	Y34	Z34	X35	Y35	Z35	X36	Y36	Z36	X37	Y37	Z37	X38	Y38	Z38	X39	Y39	Z39	X40	Y40	Z40	X41	Y41	Z41	X42	Y42	Z42	X43	Y43	Z43	X44	Y44	Z44	X45	Y45	Z45	X46	Y46	Z46	X47	Y47	Z47	X48	Y48	Z48	X49	Y49	Z49	X50	Y50	Z50	X51	Y51	Z51	

76	0.75000000	529.15054	441.70565	-70.47072	484.28483	383.24595	-46.22604	253.28208	182.83993	-97.43285	187.10075	209.73541	-142.29199	274.31783	64.28382	-79.82529	323.69691	53.40329	-131.16566	760.12347	451.78491	-390.33050	804.18577	398.96558	-391.48197	834.12096	89.42605	-400.32331	765.14112	55.56990	-360.70590	931.23674	45.81284	-419.95320	974.63457	78.12436	-364.17205	401.75415	305.59826	-47.63243	434.63056	433.46267	-72.85398	347.08360	358.78691	-79.74368	718.57842	388.08108	-420.12310	750.18877	270.11463	-429.62080	679.78727	730.77227	-82.53258	663.30722	619.91990	-66.45557	604.66764	610.38403	-36.68088	576.61912	750.40887	-38.79120	552.89754	636.12044	-44.93085	739.26403	741.31228	-398.91791	776.62531	604.67707	-397.31746	629.23253	708.30929	-416.43312	677.21880	571.80282	-410.06269	697.44022	884.47760	-98.82371	521.25671	902.72265	-188.28265	720.82638	882.15568	-359.75999	525.49138	892.33701	-295.19458	594.61961	1359.18641	-328.37185	681.53880	1337.98540	-178.12597	616.14491	1245.02573	-475.75368	706.13027	1267.34185	-307.76700	693.78729	1254.51410	-348.25507	721.87543	1122.25804	-56.49868	660.63816	1013.96419	-51.48855	710.95452	1046.32698	-9.64570	773.89616	938.85062	-8.17341	807.40173	827.08672	0.77942	782.54443	822.09180	37.35867	639.90388	1107.89070	-501.18692	596.52372	903.01409	-424.40699	598.12277	903.97214	-486.64796	654.38638	811.90454	-506.93685	691.61936	692.63869	-491.28194	657.84077	677.76311	-488.75880	635.67452	808.96044	-132.52482	654.47707	808.25028	-331.89768	638.14212	812.07306	-130.97361	644.94927	795.38490	-302.88757	
77	0.76000000	549.49192	439.63316	-70.65913	503.87552	382.32112	-46.19629	266.68298	190.12944	-97.63041	204.01230	222.04483	-143.18738	279.66127	70.25618	-80.41180	329.14864	55.63105	-130.64371	770.06333	454.46811	-393.76858	813.02452	399.83410	-394.79292	835.11743	89.21199	-400.93702	765.41292	55.98773	-360.85132	931.59485	44.53159	-420.57588	975.61614	76.07492	-364.78187	419.08634	307.16570	-47.94083	456.00703	433.98876	-73.02882	366.14510	362.03667	-80.16366	727.01569	390.98807	-423.46162	755.85191	272.19586	-432.26912	693.74492	731.23374	-85.35570	680.31020	619.85484	-68.45851	621.62278	609.32473	-38.26921	590.18757	748.78064	-41.58770	569.19298	633.98841	-46.72628	749.85913	744.44074	-403.63448	787.17642	607.74712	-401.99801	639.74062	711.52467	-419.65859	687.80978	574.83242	-413.52177	709.35231	884.75340	-101.62691	533.12559	903.32005	-189.18886	731.88188	885.17845	-362.48309	536.82839	894.80451	-296.20270	607.08328	1359.97239	-332.13249	693.55777	1339.39660	-181.43089	629.81518	1244.72196	-478.74615	718.45846	1268.08560	-310.65899	706.23491	1255.00481	-351.11134	731.71775	1123.52318	-59.06015	669.38451	1015.59526	-55.02134	719.49271	1047.57664	-12.44841	781.28925	939.44219	-9.84018	813.06138	827.17984	0.03512	787.78099	822.65365	36.37564	654.83388	1107.70684	-503.35867	611.40571	902.68637	-426.94760	613.77008	903.67542	-489.28209	669.11157	811.28890	-509.07788	704.55571	691.54272	-493.35097	670.69788	677.00884	-491.06205	647.91933	809.39095	-135.47142	665.52673	811.02220	-334.92295	650.69097	811.61656	-134.63922	656.64471	797.93150	-306.75083	
78	0.77000000	570.63772	437.77013	-70.96000	524.60521	381.42508	-46.31603	281.29241	197.72970	-98.05791	222.26471	234.15400	-144.49240	286.57134	77.15437	-80.94605	336.15396	58.83587	-129.91139	779.26686	457.11382	-397.19906	820.96305	400.73127	-398.39034	835.66556	89.10585	-401.65304	765.51102	56.27196	-361.03919	931.71856	43.73091	-421.18797	976.20818	74.72518	-365.40382	437.63997	308.78774	-48.40857	478.43353	434.53136	-73.06062	386.35031	365.36906	-80.37264	734.43805	393.91286	-426.52486	760.48413	274.35687	-434.78032	707.51932	732.21315	-88.19464	697.42313	620.29012	-70.53425	638.67957	608.63589	-39.91905	603.50454	747.33548	-44.39432	585.56293	632.05950	-48.58856	760.20254	747.61015	-408.17355	797.39653	610.87705	-406.45234	649.95747	714.84884	-422.92257	697.95703	577.98145	-416.97535	720.71765	885.43721	-104.58135	544.57591	904.35383	-189.90075	742.51408	888.98901	-365.22537	547.74678	897.64662	-296.97141	619.40918	1361.15917	-335.56342	705.27972	1341.31273	-184.50109	643.39442	1245.18310	-481.39045	730.60322	1269.32768	-313.11238	718.60892	1256.00150	-353.55404	741.36543	1125.31456	-61.60634	677.91730	1017.84606	-58.65569	727.76728	1049.38220	-15.25213	788.37393	940.61238	-11.53337	818.47405	827.85194	-0.77268	792.73531	823.77840	35.31697	669.77983	1108.43519	-505.17526	626.38303	903.20357	-429.37698	629.51778	904.26269	-491.84230	684.03402	811.59154	-511.15296	717.57326	691.34926	-495.46465	683.66771	677.19114	-493.51251	659.84274	810.23522	-138.46894	676.15054	814.45481	-337.98479	662.73700	811.89014	-138.41294	667.83720	801.10747	-310.62048	
79	0.78000000	592.41658	436.27703	-71.40646	546.22464	380.69606	-46.62436	297.05263	205.52129	-98.78805	241.40866	245.59960	-146.27189	295.54561	84.83122	-81.32368	345.15937	63.08479	-128.97571	787.60162	459.39469	-400.39906	828.01887	401.47975	-401.94426	835.99476	89.04924	-402.38116	765.56028	56.49743	-361.24031	931.77827	43.15775	-421.73900	976.64841	73.70244	-365.96216	457.20613	310.55004	-49.05919	501.63891	435.19745	-73.02847	407.46717	368.83882	-80.45194	740.93795	396.56218	-429.13996	764.31099	276.35445	-436.97966	721.06284	733.70325	-90.99168	714.43843	621.30026	-72.62021	655.69223	608.40951	-41.62947	616.56056	746.17037	-47.20345	601.92646	630.47482	-50.54844	770.34730	750.36295	-412.39741	807.15249	613.59658	-410.46251	659.92491	718.04395	-426.09136	707.50088	580.94574	-420.20782	731.59503	886.55425	-107.62820	555.63304	905.70808	-190.62399	752.88295	893.28515	-367.91422	558.37421	900.57227	-297.71357	631.55659	1362.65545	-338.65390	716.63264	1343.63839	-187.29998	656.85745	1246.32769	-483.68505	742.53360	1270.97179	-315.13031	730.91189	1257.42911	-355.57970	750.75196	1127.53777	-64.03431	686.17422	1020.64919	-62.22670	735.74087	1051.67272	-17.93785	795.12504	942.28999	-13.17933	823.73580	829.07739	-1.64234	797.49341	825.40056	34.16347	684.64540	1109.96776	-506.68655	641.34586	904.50274	-431.70385	645.26212	905.66233	-494.31858	699.10625	812.74234	-513.14829	730.70239	692.00612	-497.60260	696.79956	678.25174	-496.08420	671.47400	811.46655	-141.45619	686.55344	818.25434	-341.01284	674.29460	812.90926	-142.17443	678.70382	804.65055	-314.34836	
